<?xml version="1.0" encoding="utf-8"?>
<!DOCTYPE svg PUBLIC "-//W3C//DTD SVG 1.1//EN" "http://www.w3.org/Graphics/SVG/1.1/DTD/svg11.dtd">
<svg version="1.1" xmlns="http://www.w3.org/2000/svg" xmlns:xlink="http://www.w3.org/1999/xlink" x="0px" y="0px" viewBox="0 0 150 33" enable-background="new 0 0 150 33" xml:space="preserve">
<path class="downButton" fill="#C8202D" d="M0,32.969c0,0,18.125,0.131,18.125-15.869S36,1.531,36,1.531h78c0,0,18-1.45,18,15.519s18,15.919,18,15.919 H0z" />
<path class="downArrow" fill="#FFFFFF" d="M65.797,13.049C65.599,12.9,65.5,12.703,65.5,12.455s0.074-0.47,0.223-0.668l0.594-0.52
c0.148-0.198,0.346-0.297,0.594-0.297s0.47,0.099,0.668,0.297L75,18.838l7.422-7.57c0.198-0.148,0.42-0.223,0.668-0.223
s0.445,0.074,0.594,0.223l0.594,0.52c0.148,0.198,0.223,0.42,0.223,0.668s-0.074,0.445-0.223,0.594l-8.609,8.758
c-0.198,0.148-0.42,0.223-0.668,0.223s-0.47-0.074-0.668-0.223h0.074L65.797,13.049z" /></svg>